<svg xmlns="http://www.w3.org/2000/svg" xmlns:xlink="http://www.w3.org/1999/xlink" version="1.1" x="0px" y="0px" viewBox="0 0 20 25" enable-background="new 0 0 20 20" xml:space="preserve"><g><path fill="#000000" d="M17,0H3C1.3,0,0,1.3,0,3v11c0,1.7,1.3,3,3,3h9v-2H8.4L16,7.4l2,2V12h2V3C20,1.3,18.7,0,17,0z M3,15   c-0.6,0-1-0.4-1-1v-0.6l3-3L7.6,13l-2,2H3z M16,4.6l-7,7l-4-4l-3,3V3c0-0.6,0.4-1,1-1h14c0.6,0,1,0.4,1,1v3.6L16,4.6z"/><circle fill="#000000" cx="8.5" cy="5.5" r="1.5"/><polygon fill="#000000" points="18,14 16,14 16,16 14,16 14,18 16,18 16,20 18,20 18,18 20,18 20,16 18,16  "/></g><text x="0" y="35" fill="#000000" font-size="5px" font-weight="bold" font-family="'Helvetica Neue', Helvetica, Arial-Unicode, Arial, Sans-serif">Created by ProSymbols</text><text x="0" y="40" fill="#000000" font-size="5px" font-weight="bold" font-family="'Helvetica Neue', Helvetica, Arial-Unicode, Arial, Sans-serif">from the Noun Project</text></svg>