<svg xmlns="http://www.w3.org/2000/svg" viewBox="0 0 32 40" x="0px" y="0px"><title>text</title><g data-name="9-text"><path d="M31,3V7a1,1,0,0,1-2,0V4H17V28h3a1,1,0,0,1,0,2H12a1,1,0,0,1,0-2h3V4H3V7A1,1,0,0,1,1,7V3A1,1,0,0,1,2,2H30A1,1,0,0,1,31,3Z"/></g><text x="0" y="47" fill="#000000" font-size="5px" font-weight="bold" font-family="'Helvetica Neue', Helvetica, Arial-Unicode, Arial, Sans-serif">Created by Ricki Tri Putra</text><text x="0" y="52" fill="#000000" font-size="5px" font-weight="bold" font-family="'Helvetica Neue', Helvetica, Arial-Unicode, Arial, Sans-serif">from the Noun Project</text></svg>